<svg width="157" height="157" viewBox="0 0 157 157" fill="none" xmlns="http://www.w3.org/2000/svg">
<circle cx="78.5" cy="78.5" r="78.5" fill="#D8DFFB"/>
<path d="M93.4141 87.7441H119.303L107.527 109.809" stroke="#E0E0E0" stroke-miterlimit="10"/>
<path d="M142.959 91.9159L119.307 87.6216L131.628 66.8672" stroke="#E0E0E0" stroke-miterlimit="10"/>
<path d="M104.777 68.0859C105.152 68.3357 119.305 87.6219 119.305 87.6219L127.838 109.809" stroke="#E0E0E0" stroke-miterlimit="10"/>
<path d="M12.6641 87.7441H38.5533L26.7765 109.809" stroke="#E0E0E0" stroke-miterlimit="10"/>
<path d="M62.2112 91.9159L38.5586 87.6216L50.8802 66.8672" stroke="#E0E0E0" stroke-miterlimit="10"/>
<path d="M24.0293 68.0859C24.4039 68.3357 38.5574 87.6219 38.5574 87.6219L47.0899 109.809" stroke="#E0E0E0" stroke-miterlimit="10"/>
<path d="M38.0521 64.0921C51.1151 64.0921 61.7048 74.6817 61.7048 87.7447C61.7048 100.808 51.1151 111.397 38.0521 111.397C24.9892 111.397 14.3996 100.808 14.3996 87.7447C14.4136 74.6876 24.995 64.1061 38.0521 64.0921ZM38.0521 60.6968C23.114 60.6945 11.0024 72.8023 11 87.7405C10.9977 102.679 23.1055 114.79 38.0437 114.793C52.9818 114.795 65.0935 102.687 65.0958 87.749V87.7447C65.0958 72.8066 52.9861 60.6968 38.0479 60.6968H38.0521Z" fill="#5E0794"/>
<path d="M38.0533 65.1017C50.5584 65.0994 60.6977 75.2349 60.7 87.74C60.7024 100.245 50.5669 110.384 38.0618 110.387C25.5567 110.389 15.4174 100.254 15.4151 87.7485V87.7442C15.4268 75.2456 25.5547 65.1158 38.0533 65.1017ZM38.0533 61.855C23.755 61.855 12.1641 73.446 12.1641 87.7442C12.1641 102.042 23.755 113.633 38.0533 113.633C52.3515 113.633 63.9425 102.042 63.9425 87.7442C63.9425 73.446 52.3516 61.855 38.0533 61.855Z" fill="#FFE100"/>
<path d="M119.301 64.0921C132.364 64.0898 142.956 74.6775 142.958 87.7405C142.961 100.803 132.373 111.395 119.31 111.397C106.247 111.4 95.6555 100.812 95.6531 87.749V87.7447C95.6672 74.6876 106.249 64.1061 119.306 64.0921M119.306 60.6968C104.368 60.6968 92.2578 72.8066 92.2578 87.7447C92.2578 102.683 104.368 114.793 119.306 114.793C134.244 114.793 146.354 102.683 146.354 87.7447C146.354 72.8066 134.244 60.6968 119.306 60.6968Z" fill="#5E0794"/>
<path d="M119.303 65.1017C131.808 65.0994 141.948 75.2349 141.95 87.74C141.952 100.245 131.817 110.384 119.312 110.387C106.807 110.389 96.6674 100.254 96.6651 87.7485V87.7442C96.6768 75.2456 106.805 65.1158 119.303 65.1017ZM119.303 61.855C105.005 61.855 93.4141 73.446 93.4141 87.7442C93.4141 102.042 105.005 113.633 119.303 113.633C133.601 113.633 145.193 102.042 145.193 87.7442C145.193 73.446 133.601 61.855 119.303 61.855Z" fill="#FFE100"/>
<path d="M119.303 91.9167C121.607 91.9167 123.475 90.0489 123.475 87.7447C123.475 85.4406 121.607 83.5728 119.303 83.5728C116.999 83.5728 115.131 85.4406 115.131 87.7447C115.131 90.0489 116.999 91.9167 119.303 91.9167Z" fill="#5E0794"/>
<path d="M38.0481 84.8414C38.3137 84.8424 38.5778 84.8796 38.8333 84.9518H38.9267L75.4984 92.2432C78.1846 92.9407 79.7968 95.6837 79.0993 98.3699C78.5232 100.589 76.5179 102.137 74.2252 102.132C73.8161 102.131 73.4085 102.082 73.0114 101.984L37.3139 90.5243H37.2672C35.7248 90.0866 34.8294 88.4815 35.2671 86.9391C35.6199 85.6961 36.7518 84.8358 38.0439 84.8287M38.0439 83.5555C35.7377 83.5239 33.8425 85.368 33.8109 87.6742C33.7847 89.5955 35.0727 91.2868 36.9319 91.7721L72.6676 103.231C73.1781 103.361 73.7027 103.426 74.2294 103.427C77.7079 103.423 80.5247 100.6 80.5208 97.1214C80.5177 94.2448 78.566 91.7358 75.7785 91.0252L39.1728 83.7083C38.807 83.6041 38.4285 83.5513 38.0481 83.5513L38.0439 83.5555Z" fill="#5E0794"/>
<path opacity="0.7" d="M38.0481 84.8414C38.3137 84.8424 38.5778 84.8796 38.8333 84.9518H38.9267L75.4984 92.2432C78.1846 92.9407 79.7968 95.6837 79.0993 98.3699C78.5232 100.589 76.5179 102.137 74.2252 102.132C73.8161 102.131 73.4085 102.082 73.0114 101.984L37.3139 90.5243H37.2672C35.7248 90.0866 34.8294 88.4815 35.2671 86.9391C35.6199 85.6961 36.7518 84.8358 38.0439 84.8287M38.0439 83.5555C35.7377 83.5239 33.8425 85.368 33.8109 87.6742C33.7847 89.5955 35.0727 91.2868 36.9319 91.7721L72.6676 103.231C73.1781 103.361 73.7027 103.426 74.2294 103.427C77.7079 103.423 80.5247 100.6 80.5208 97.1214C80.5177 94.2448 78.566 91.7358 75.7785 91.0252L39.1728 83.7083C38.807 83.6041 38.4285 83.5513 38.0481 83.5513L38.0439 83.5555Z" fill="white"/>
<path d="M74.2263 98.4015C74.1656 98.4057 74.1046 98.4057 74.0439 98.4015C73.6017 98.3386 73.2249 98.0487 73.0507 97.6376L50.3912 43.945C50.1182 43.2968 50.4222 42.5501 51.0703 42.277C51.7184 42.0039 52.4652 42.308 52.7383 42.956L74.5743 94.6836L109.376 52.0979C109.837 51.5671 110.642 51.5106 111.173 51.9717C111.682 52.414 111.758 53.1767 111.346 53.7107L75.2237 97.9346C74.9792 98.2334 74.6124 98.4052 74.2263 98.4015Z" fill="#5E0794"/>
<path d="M38.0518 88.5935C37.5831 88.5945 37.2022 88.2153 37.2012 87.7465C37.2009 87.6196 37.2291 87.4942 37.2837 87.3797L54.3154 51.4233C54.4936 50.9897 54.9896 50.7827 55.4232 50.9609C55.8568 51.1392 56.0638 51.6351 55.8855 52.0687C55.8743 52.0962 55.8616 52.123 55.8475 52.1491L38.82 88.1054C38.6802 88.4032 38.3808 88.5934 38.0518 88.5935Z" fill="#5E0794"/>
<path d="M119.303 89.0174C118.721 89.0179 118.212 88.6228 118.068 88.0582L107.849 48.2906L55.1958 53.0525C54.4926 53.1158 53.8712 52.5971 53.808 51.8939C53.7447 51.1907 54.2634 50.5693 54.9666 50.506L108.697 45.6465C109.32 45.5893 109.891 45.9921 110.047 46.5972L120.539 87.413C120.713 88.094 120.303 88.7873 119.622 88.9622C119.519 88.9952 119.412 89.0138 119.303 89.0174Z" fill="#5E0794"/>
<path d="M108.81 48.1976C108.172 48.2042 107.628 47.738 107.537 47.1069L106.021 36.5984C105.919 35.9022 106.401 35.2552 107.097 35.1533C107.793 35.0513 108.441 35.533 108.542 36.2292L110.083 46.7419C110.184 47.4378 109.702 48.0838 109.006 48.1848L109.005 48.1849C108.94 48.194 108.875 48.1982 108.81 48.1976Z" fill="#5E0794"/>
<path d="M42.7418 43.2486C44.6422 45.2335 54.3537 42.9175 57.2015 41.9754C60.0494 41.0332 61.6204 41.8703 60.6484 39.6548C59.8531 37.8419 54.1745 38.5794 50.3466 38.6204C49.368 38.6309 48.3875 38.5385 47.4453 38.274C43.4596 37.155 39.2107 38.7362 42.7418 43.2486Z" fill="#FFE100"/>
<path d="M70.4725 111.507C70.0037 111.507 69.6234 111.128 69.623 110.659C69.623 110.583 69.6332 110.507 69.6534 110.433L77.157 83.3683C77.3028 82.9228 77.7822 82.6797 78.2277 82.8255C78.6451 82.9621 78.8894 83.3944 78.7911 83.8224L71.2874 110.87C71.1913 111.243 70.8569 111.504 70.4725 111.507Z" fill="#5E0794"/>
<path d="M80.0826 84.4467H72.5832C72.1144 84.4467 71.7344 84.0667 71.7344 83.5979C71.7344 83.1291 72.1144 82.749 72.5832 82.749H80.0826C80.5514 82.749 80.9314 83.1291 80.9314 83.5979C80.9314 84.0667 80.5514 84.4467 80.0826 84.4467Z" fill="#5E0794"/>
<path d="M75.8635 111.507H68.3683C67.8996 111.507 67.5195 111.127 67.5195 110.658C67.5195 110.19 67.8996 109.81 68.3683 109.81H75.8635C76.3323 109.81 76.7123 110.19 76.7123 110.658C76.7123 111.127 76.3323 111.507 75.8635 111.507Z" fill="#5E0794"/>
<path d="M119.017 42.8265C118.48 42.8265 117.959 42.5477 117.672 42.0492C117.245 41.3074 117.501 40.36 118.243 39.9333L118.994 39.5008C120.549 38.6073 121.153 36.6439 120.37 35.031C119.619 33.4829 117.823 32.7277 116.192 33.2785L101.61 38.1088C100.799 38.3782 99.9204 37.9375 99.6513 37.1252C99.3822 36.3128 99.8226 35.436 100.635 35.1669L115.21 30.3387C118.308 29.2961 121.728 30.7307 123.159 33.6781C124.649 36.7486 123.498 40.4866 120.54 42.1875L119.788 42.6197C119.545 42.7599 119.279 42.8265 119.017 42.8265Z" fill="#FFE100"/>
<path d="M38.0509 83.5728C40.355 83.5728 42.2229 85.4406 42.2229 87.7447C42.2229 90.0488 40.355 91.9167 38.0509 91.9167C35.7467 91.9167 33.8789 90.0489 33.8789 87.7447C33.8789 85.4406 35.7468 83.5728 38.0509 83.5728Z" fill="#5E0794"/>
<path d="M74.226 90.8296C70.7475 90.8296 67.9277 93.6495 67.9277 97.1279C67.9277 100.606 70.7475 103.426 74.226 103.426C77.7045 103.426 80.5243 100.606 80.5243 97.1279C80.5267 93.6518 77.7106 90.8319 74.2345 90.8296H74.226Z" fill="#5E0794"/>
</svg>
