<svg width="175" height="163" viewBox="0 0 175 163" fill="none" xmlns="http://www.w3.org/2000/svg">
<path d="M140.269 101.276C140.269 116.559 130.909 116.918 119.37 116.918C107.83 116.918 98.4707 116.559 98.4707 101.276C98.4707 85.9938 107.826 29.2861 119.37 29.2861C130.914 29.2861 140.269 85.9938 140.269 101.276Z" fill="#314658"/>
<path d="M119.404 54.3276L117.89 88.4846L111.403 78.7565L117.242 91.7302L116.807 109.677L106 102.972L116.376 114.649L113.996 162.863H122.428L121.132 102.542L130.429 91.2995L121.349 98.6477L120.701 73.7837L124.808 69.0285L120.483 70.9732L119.404 54.3276Z" fill="#263238"/>
<path opacity="0.45" d="M119.404 54.3276L117.89 88.4846L111.403 78.7565L117.242 91.7302L116.807 109.677L106 102.972L116.376 114.649L113.996 162.863H122.428L121.132 102.542L130.429 91.2995L121.349 98.6477L120.701 73.7837L124.808 69.0285L120.483 70.9732L119.404 54.3276Z" fill="white"/>
<path d="M112.331 87.7744C112.331 106.422 100.921 106.844 86.8503 106.844C72.7799 106.844 61.3691 106.4 61.3691 87.7744C61.3691 69.1486 72.7711 0 86.8459 0C100.921 0 112.331 69.1441 112.331 87.7744Z" fill="#5D8D7E"/>
<path d="M86.8866 30.5337L85.044 72.1809L77.1364 60.3172L84.2537 76.1369L83.7253 98.0128L70.543 89.8432L83.197 104.078L80.2976 162.863H90.5807L88.9956 89.3148L100.331 75.6086L89.262 84.5685L88.4717 54.2566L93.48 48.458L88.2053 50.8289L86.8866 30.5337Z" fill="#263238"/>
<path opacity="0.45" d="M86.8866 30.5337L85.044 72.1809L77.1364 60.3172L84.2537 76.1369L83.7253 98.0128L70.543 89.8432L83.197 104.078L80.2976 162.863H90.5807L88.9956 89.3148L100.331 75.6086L89.262 84.5685L88.4717 54.2566L93.48 48.458L88.2053 50.8289L86.8866 30.5337Z" fill="white"/>
<path d="M174.349 87.8898C174.349 106.493 162.961 106.933 148.908 106.933C134.855 106.933 123.467 106.489 123.467 87.8898C123.467 69.2907 134.855 0.235352 148.908 0.235352C162.961 0.235352 174.349 69.2862 174.349 87.8898Z" fill="#3F7E7A"/>
<path d="M148.952 30.7339L147.11 72.3189L139.211 60.4774L146.319 76.2705L145.791 98.1153L132.631 89.9546L145.267 104.167L142.372 162.864H152.637L151.057 89.4262L162.374 75.7422L151.319 84.6888L150.528 54.4213L155.532 48.6315L150.267 51.0025L148.952 30.7339Z" fill="#263238"/>
<path opacity="0.45" d="M148.952 30.7339L147.11 72.3189L139.211 60.4774L146.319 76.2705L145.791 98.1153L132.631 89.9546L145.267 104.167L142.372 162.864H152.637L151.057 89.4262L162.374 75.7422L151.319 84.6888L150.528 54.4213L155.532 48.6315L150.267 51.0025L148.952 30.7339Z" fill="white"/>
<path d="M77.7618 87.8898C77.7618 106.493 66.3688 106.933 52.3162 106.933C38.2636 106.933 26.875 106.489 26.875 87.8898C26.875 69.2907 38.268 0.235352 52.3162 0.235352C66.3644 0.235352 77.7618 69.2862 77.7618 87.8898Z" fill="#314658"/>
<path d="M52.36 30.7339L50.5174 72.3189L42.623 60.4774L49.727 76.2705L49.2031 98.1153L36.043 89.9546L48.6748 104.167L45.7799 162.864H56.0452L54.4645 89.4262L65.7821 75.7422L54.7309 84.6888L53.9406 54.4213L58.9401 48.6315L53.6742 51.0025L52.36 30.7339Z" fill="#263238"/>
<path opacity="0.45" d="M52.36 30.7339L50.5174 72.3189L42.623 60.4774L49.727 76.2705L49.2031 98.1153L36.043 89.9546L48.6748 104.167L45.7799 162.864H56.0452L54.4645 89.4262L65.7821 75.7422L54.7309 84.6888L53.9406 54.4213L58.9401 48.6315L53.6742 51.0025L52.36 30.7339Z" fill="white"/>
<path d="M43.4276 98.8657C43.4276 114.743 33.704 115.121 21.7116 115.121C9.71916 115.121 0 114.743 0 98.8657C0 82.9883 9.71472 24.0562 21.7116 24.0562C33.7085 24.0562 43.4276 82.9838 43.4276 98.8657Z" fill="#3F7E7A"/>
<path d="M21.7466 50.0742L20.1749 85.572L13.435 75.4621L19.5 88.9464L19.0516 107.594L7.81836 100.628L18.6031 112.758L16.13 162.864H24.8902L23.5448 100.18L33.2063 88.4935L23.7668 96.1348L23.0964 70.294L27.3632 65.3523L22.87 67.3769L21.7466 50.0742Z" fill="#263238"/>
<path opacity="0.45" d="M21.7466 50.0742L20.1749 85.572L13.435 75.4621L19.5 88.9464L19.0516 107.594L7.81836 100.628L18.6031 112.758L16.13 162.864H24.8902L23.5448 100.18L33.2063 88.4935L23.7668 96.1348L23.0964 70.294L27.3632 65.3523L22.87 67.3769L21.7466 50.0742Z" fill="white"/>
</svg>
