<svg width="110" height="152" viewBox="0 0 110 152" fill="none" xmlns="http://www.w3.org/2000/svg">
<path d="M100.073 0H9.28109C4.15528 0 0 4.15528 0 9.28109V141.955C0 147.081 4.15528 151.237 9.28109 151.237H100.073C105.199 151.237 109.354 147.081 109.354 141.955V9.28109C109.354 4.15528 105.199 0 100.073 0Z" fill="#407BFF"/>
<path d="M98.0222 147.402H11.3151C8.54481 147.402 6.29102 145.148 6.29102 142.378V11.0963C6.29102 8.32601 8.54481 6.07227 11.3151 6.07227H98.0222C100.792 6.07227 103.046 8.32601 103.046 11.0963V142.378C103.046 145.148 100.792 147.402 98.0222 147.402ZM11.3151 7.62171C9.40562 7.62171 7.85613 9.17118 7.85613 11.0806V142.362C7.85613 144.271 9.40562 145.821 11.3151 145.821H98.0222C99.9316 145.821 101.481 144.271 101.481 142.362V11.0806C101.481 9.17118 99.9316 7.62171 98.0222 7.62171H11.3151Z" fill="white"/>
<path d="M73.5612 36.5611C77.5052 38.3454 80.5415 40.8808 82.6857 44.1676C84.8142 47.4543 85.8786 51.3358 85.8786 55.8276C85.8786 60.3195 84.8142 64.1384 82.6857 67.4564C80.5571 70.7744 77.5209 73.3099 73.5612 75.0628C69.6171 76.8157 64.953 77.6922 59.6003 77.6922H47.4081V94.3763H33.4004V33.8691H59.5847C64.9374 33.8691 69.6014 34.7613 73.5455 36.5455L73.5612 36.5611ZM68.4119 63.5749C70.603 61.7594 71.6987 59.177 71.6987 55.8433C71.6987 52.5096 70.603 49.8333 68.4119 48.0177C66.2207 46.2022 63.0279 45.2944 58.8178 45.2944H47.4081V66.2982H58.8178C63.0279 66.2982 66.2207 65.3905 68.4119 63.5749Z" fill="white"/>
</svg>
