<svg width="112" height="156" viewBox="0 0 112 156" fill="none" xmlns="http://www.w3.org/2000/svg">
<path d="M56 0C24.7479 36.3896 0 72.2179 0 101.981C0 131.745 25.0652 155.87 56 155.87C86.9348 155.87 112 131.745 112 101.981C112 72.2179 87.2521 36.4384 56 0Z" fill="#407BFF"/>
<path opacity="0.2" d="M56 0C24.7479 36.3896 0 72.2179 0 101.981C0 131.745 25.0652 155.87 56 155.87C86.9348 155.87 112 131.745 112 101.981C112 72.2179 87.2521 36.4384 56 0Z" fill="white"/>
<path opacity="0.2" d="M52.3379 26.6763C46.7733 33.3026 44.8696 42.4305 44.4547 51.0825C43.9082 58.5696 44.8582 66.0906 47.2493 73.2067C51.081 83.6769 60.1845 92.9025 71.9483 93.0733C74.7308 93.1249 77.4838 92.4959 79.9679 91.2411C82.4519 89.9863 84.5918 88.1437 86.2015 85.8735C88.3437 82.3186 89.5058 78.2596 89.5696 74.1097C90.436 59.7711 84.9446 45.6155 76.8417 33.7419C71.6676 26.1515 61.7709 16.6575 53.3508 25.4926C53.0335 25.9685 52.704 26.3346 52.3379 26.6763Z" fill="white"/>
<path d="M112 101.981C111.873 94.2929 110.496 86.6764 107.924 79.4299C110.902 89.9978 97.9542 127.486 60.3321 116.881C22.71 106.277 15.9494 58.2087 41.0024 18.1338C17.1942 48.1656 0 77.1846 0 101.993C0 131.757 25.0652 155.882 56 155.882C86.9348 155.882 112 131.745 112 101.981Z" fill="#407BFF"/>
<path opacity="0.1" d="M103.067 131.196C94.3299 140.299 80.9065 147.194 60.5273 144.326C11.3001 137.383 1.45216 84.8851 13.2648 58.8193C4.96665 74.0976 0 88.6437 0 101.982C0 131.745 25.0652 155.871 56 155.871C65.2671 155.932 74.4072 153.714 82.615 149.411C90.8228 145.108 97.8465 138.853 103.067 131.196Z" fill="black"/>
<path opacity="0.3" d="M65.5059 46.201C66.6164 50.6795 69.057 54.7432 73.926 54.0598C75.4996 53.8205 76.9474 53.0605 78.0381 51.9013C79.1287 50.742 79.7992 49.2506 79.9421 47.6654C80.1562 44.7389 79.3213 41.8318 77.587 39.4649C76.0306 36.9825 73.8678 34.9373 71.3024 33.522C70.5137 33.1107 69.6254 32.9292 68.7386 32.9982C67.8519 33.0673 67.0023 33.384 66.2869 33.9125C65.6716 34.5006 65.1881 35.2126 64.8683 36.0015C64.5486 36.7903 64.3999 37.6381 64.432 38.4886C64.4899 41.0923 64.8503 43.6805 65.5059 46.201Z" fill="white"/>
<path opacity="0.3" d="M102.872 94.2688C103.69 107.692 102.494 122.263 93.5487 132.22C91.8037 134.161 89.5583 135.967 86.9468 135.979C83.5422 135.979 80.8453 132.831 80.0399 129.511C79.2345 126.192 79.8569 122.739 80.2108 119.358C81.0658 111.16 80.3324 102.873 78.0508 94.9522C76.0983 88.1917 72.9987 81.6874 72.3276 74.6828C71.6564 67.6783 74.1214 59.6852 80.4426 56.5979C87.1055 53.364 93.5121 59.9903 96.209 65.3841C100.529 74.0483 102.298 84.7016 102.872 94.2688Z" fill="white"/>
</svg>
