<svg width="246" height="154" viewBox="0 0 246 154" fill="none" xmlns="http://www.w3.org/2000/svg">
<path d="M149.678 104.875H196.698L175.309 144.951" stroke="#E0E0E0" stroke-miterlimit="10"/>
<path d="M239.665 112.453L196.707 104.653L219.086 66.959" stroke="#E0E0E0" stroke-miterlimit="10"/>
<path d="M170.32 69.1719C171.001 69.6255 196.706 104.653 196.706 104.653L212.203 144.95" stroke="#E0E0E0" stroke-miterlimit="10"/>
<path d="M3.02344 104.875H50.0435L28.6545 144.951" stroke="#E0E0E0" stroke-miterlimit="10"/>
<path d="M93.0086 112.453L50.0508 104.653L72.4293 66.959" stroke="#E0E0E0" stroke-miterlimit="10"/>
<path d="M23.6641 69.1719C24.3445 69.6255 50.0501 104.653 50.0501 104.653L65.5468 144.95" stroke="#E0E0E0" stroke-miterlimit="10"/>
<path d="M49.1321 61.9176C72.8571 61.9176 92.0901 81.1505 92.0901 104.875C92.0901 128.6 72.8571 147.833 49.1321 147.833C25.4072 147.833 6.17431 128.6 6.17431 104.875C6.19987 81.1611 25.4177 61.9431 49.1321 61.9176ZM49.1321 55.751C22.0015 55.7468 0.00427861 77.7371 5.91672e-07 104.868C-0.00416485 131.998 21.9861 153.996 49.1168 154C76.2475 154.004 98.2447 132.014 98.249 104.883V104.875C98.249 77.7448 76.2552 55.751 49.1245 55.751H49.1321Z" fill="#5E0794"/>
<path d="M49.1333 63.7522C71.8452 63.748 90.2602 82.1561 90.2645 104.868C90.2687 127.58 71.8605 145.995 49.1488 145.999C26.437 146.003 8.02202 127.595 8.01774 104.883V104.876C8.03901 82.1756 26.4334 63.7777 49.1333 63.7522ZM49.1333 57.8555C23.1648 57.8555 2.11328 78.907 2.11328 104.876C2.11328 130.844 23.1648 151.896 49.1333 151.896C75.1018 151.896 96.1535 130.844 96.1535 104.876C96.1535 78.907 75.1019 57.8555 49.1333 57.8555Z" fill="#FFE100"/>
<path d="M196.699 61.9176C220.424 61.9134 239.66 81.1428 239.664 104.868C239.669 128.593 220.439 147.829 196.714 147.833C172.989 147.838 153.753 128.608 153.749 104.883V104.875C153.774 81.1611 172.992 61.9431 196.707 61.9176M196.707 55.751C169.576 55.751 147.582 77.7448 147.582 104.875C147.582 132.006 169.576 154 196.707 154C223.837 154 245.831 132.006 245.831 104.875C245.831 77.7448 223.837 55.751 196.707 55.751Z" fill="#5E0794"/>
<path d="M196.698 63.7522C219.41 63.748 237.825 82.1561 237.829 104.868C237.833 127.58 219.425 145.995 196.713 145.999C174.001 146.003 155.586 127.595 155.582 104.883V104.876C155.603 82.1756 173.998 63.7777 196.698 63.7522ZM196.698 57.8555C170.729 57.8555 149.678 78.907 149.678 104.876C149.678 130.844 170.729 151.896 196.698 151.896C222.666 151.896 243.718 130.844 243.718 104.876C243.718 78.907 222.666 57.8555 196.698 57.8555Z" fill="#FFE100"/>
<path d="M196.7 112.453C200.885 112.453 204.277 109.06 204.277 104.875C204.277 100.691 200.885 97.2983 196.7 97.2983C192.515 97.2983 189.123 100.691 189.123 104.875C189.123 109.06 192.515 112.453 196.7 112.453Z" fill="#5E0794"/>
<path d="M49.124 99.603C49.6063 99.6048 50.086 99.6722 50.5501 99.8035H50.7196L117.141 113.046C122.02 114.313 124.948 119.295 123.681 124.173C122.635 128.204 118.993 131.015 114.829 131.006C114.086 131.005 113.346 130.915 112.624 130.737L47.7905 109.924H47.7058C44.9045 109.129 43.2781 106.214 44.0732 103.413C44.714 101.155 46.7697 99.5927 49.1164 99.5799M49.1164 97.2674C44.9278 97.2101 41.4858 100.559 41.4285 104.748C41.3807 108.237 43.7201 111.309 47.0968 112.191L112 133.003C112.927 133.238 113.88 133.357 114.837 133.357C121.154 133.35 126.27 128.223 126.263 121.906C126.257 116.681 122.713 112.125 117.65 110.834L51.1667 97.5449C50.5024 97.3558 49.8148 97.2598 49.124 97.2598L49.1164 97.2674Z" fill="#5E0794"/>
<path opacity="0.7" d="M49.124 99.603C49.6063 99.6048 50.086 99.6722 50.5501 99.8035H50.7196L117.141 113.046C122.02 114.313 124.948 119.295 123.681 124.173C122.635 128.204 118.993 131.015 114.829 131.006C114.086 131.005 113.346 130.915 112.624 130.737L47.7905 109.924H47.7058C44.9045 109.129 43.2781 106.214 44.0732 103.413C44.714 101.155 46.7697 99.5927 49.1164 99.5799M49.1164 97.2674C44.9278 97.2101 41.4858 100.559 41.4285 104.748C41.3807 108.237 43.7201 111.309 47.0968 112.191L112 133.003C112.927 133.238 113.88 133.357 114.837 133.357C121.154 133.35 126.27 128.223 126.263 121.906C126.257 116.681 122.713 112.125 117.65 110.834L51.1667 97.5449C50.5024 97.3558 49.8148 97.2598 49.124 97.2598L49.1164 97.2674Z" fill="white"/>
<path d="M114.829 124.231C114.719 124.238 114.608 124.238 114.497 124.231C113.694 124.117 113.01 123.59 112.694 122.843L71.5395 25.3267C71.0435 24.1495 71.5957 22.7933 72.7728 22.2973C73.9499 21.8014 75.3061 22.3536 75.8022 23.5306L115.461 117.478L178.668 40.1341C179.506 39.17 180.966 39.0673 181.931 39.9048C182.855 40.7082 182.993 42.0933 182.245 43.0632L116.64 123.383C116.196 123.925 115.53 124.237 114.829 124.231Z" fill="#5E0794"/>
<path d="M49.1309 106.417C48.2795 106.419 47.5877 105.73 47.5859 104.879C47.5855 104.648 47.6366 104.421 47.7358 104.213L78.6688 38.9086C78.9926 38.1211 79.8933 37.7451 80.6808 38.0688C81.4683 38.3926 81.8443 39.2933 81.5205 40.0808C81.5 40.1307 81.4771 40.1793 81.4515 40.2267L50.5261 105.531C50.2722 106.072 49.7284 106.417 49.1309 106.417Z" fill="#5E0794"/>
<path d="M196.699 107.188C195.641 107.189 194.717 106.471 194.456 105.446L175.894 33.2197L80.2664 41.8683C78.9893 41.9832 77.8608 41.0412 77.7458 39.764C77.6309 38.4869 78.5731 37.3584 79.8502 37.2434L177.436 28.4175C178.566 28.3136 179.605 29.0452 179.887 30.1442L198.942 104.274C199.259 105.511 198.514 106.77 197.277 107.088C197.09 107.147 196.895 107.181 196.699 107.188Z" fill="#5E0794"/>
<path d="M177.644 33.0499C176.486 33.0619 175.497 32.2152 175.331 31.0689L172.579 11.9834C172.394 10.719 173.269 9.54391 174.533 9.35872C175.798 9.17352 176.973 10.0484 177.158 11.3128L179.956 30.406C180.14 31.6699 179.264 32.8431 178 33.0266L177.998 33.0267C177.881 33.0433 177.762 33.0509 177.644 33.0499Z" fill="#5E0794"/>
<path d="M57.6495 24.0623C61.1011 27.6673 78.7392 23.461 83.9114 21.7498C89.0836 20.0386 91.9368 21.559 90.1716 17.5353C88.7271 14.2427 78.4136 15.5821 71.4613 15.6566C69.6841 15.6756 67.9034 15.5079 66.1921 15.0274C58.9532 12.9951 51.2363 15.8669 57.6495 24.0623Z" fill="#FFE100"/>
<path d="M108.015 148.033C107.164 148.034 106.473 147.344 106.473 146.493C106.473 146.354 106.491 146.217 106.528 146.083L120.156 96.9279C120.421 96.1187 121.291 95.6773 122.1 95.9421C122.859 96.1901 123.302 96.9753 123.124 97.7527L109.495 146.877C109.321 147.553 108.714 148.028 108.015 148.033Z" fill="#5E0794"/>
<path d="M125.469 98.8856H111.848C110.997 98.8856 110.307 98.1953 110.307 97.3439C110.307 96.4925 110.997 95.8022 111.848 95.8022H125.469C126.32 95.8022 127.01 96.4925 127.01 97.3439C127.01 98.1953 126.32 98.8856 125.469 98.8856Z" fill="#5E0794"/>
<path d="M117.807 148.034H104.194C103.343 148.034 102.652 147.343 102.652 146.492C102.652 145.64 103.343 144.95 104.194 144.95H117.807C118.658 144.95 119.348 145.64 119.348 146.492C119.348 147.343 118.658 148.034 117.807 148.034Z" fill="#5E0794"/>
<path d="M196.179 23.2955C195.204 23.2955 194.257 22.7892 193.736 21.8838C192.961 20.5365 193.425 18.8159 194.772 18.0408L196.138 17.2553C198.961 15.6326 200.058 12.0667 198.637 9.13725C197.271 6.32557 194.01 4.95402 191.048 5.95451L164.563 14.7273C163.091 15.2164 161.495 14.4161 161.007 12.9407C160.518 11.4653 161.318 9.87284 162.793 9.38413L189.265 0.615205C194.892 -1.27849 201.103 1.32704 203.701 6.68008C206.407 12.2568 204.317 19.0457 198.944 22.135L197.579 22.92C197.137 23.1746 196.655 23.2955 196.179 23.2955Z" fill="#FFE100"/>
<path d="M49.1318 97.2983C53.3167 97.2983 56.7091 100.691 56.7091 104.875C56.7091 109.06 53.3167 112.453 49.1318 112.453C44.947 112.453 41.5547 109.06 41.5547 104.875C41.5547 100.691 44.9472 97.2983 49.1318 97.2983Z" fill="#5E0794"/>
<path d="M114.83 110.479C108.512 110.479 103.391 115.6 103.391 121.918C103.391 128.235 108.512 133.357 114.83 133.357C121.147 133.357 126.269 128.236 126.269 121.918C126.273 115.605 121.158 110.483 114.845 110.479H114.83Z" fill="#5E0794"/>
</svg>
