<svg width="426" height="284" viewBox="0 0 426 284" fill="none" xmlns="http://www.w3.org/2000/svg">
<path d="M391.018 143.982H70.4219V185.344H391.018V143.982Z" fill="#FFC100"/>
<g opacity="0.2">
<path d="M391.018 143.982H70.4219V185.344H391.018V143.982Z" fill="black"/>
</g>
<path d="M401.287 152.684H403.656L405.581 172.28L402.9 172.763L401.287 152.684Z" fill="#263238"/>
<path d="M400.736 138.2C400.679 137.388 400.353 136.618 399.81 136.011C399.267 135.404 398.538 134.996 397.737 134.849L344.652 125.102L338.585 75.1179H40.4933L36.2674 81.0933L33.3649 174.762L30.7578 174.984V181.8H41.1352L43.8502 184.515H98.7701C99.0447 177.19 102.148 170.256 107.427 165.171C112.707 160.085 119.752 157.244 127.082 157.244C134.412 157.244 141.457 160.085 146.737 165.171C152.016 170.256 155.119 177.19 155.394 184.515H269.289L276.617 191.882H333.797L335.172 181.232C336.393 171.752 342.311 163.357 351.076 159.58C354.549 158.096 358.284 157.32 362.06 157.298C365.837 157.275 369.581 158.006 373.072 159.448C376.562 160.89 379.731 163.014 382.391 165.695C385.051 168.376 387.149 171.561 388.564 175.063H403.394L400.736 138.2Z" fill="#FFC100"/>
<path d="M274.259 86.7222H52.1934V126.84H274.259V86.7222Z" fill="#263238"/>
<path d="M328.247 88.8862H278.059V191.785H328.247V88.8862Z" fill="#263238"/>
<path d="M299.944 95.9351H280.859V176.426H299.944V95.9351Z" fill="#455A64"/>
<path d="M325.073 95.9351H305.988V176.426H325.073V95.9351Z" fill="#455A64"/>
<path d="M303.073 88.8862C303.153 88.8862 303.221 111.754 303.221 139.949C303.221 168.145 303.153 191.024 303.073 191.024C302.994 191.024 302.92 168.162 302.92 139.949C302.92 111.737 302.988 88.8862 303.073 88.8862Z" fill="#455A64"/>
<g opacity="0.3">
<path d="M280.859 145.442V156.285L299.944 133.696V123.273L280.859 145.442Z" fill="white"/>
</g>
<g opacity="0.3">
<path d="M305.988 158.353V169.196L325.073 146.601V136.178L305.988 158.353Z" fill="white"/>
</g>
<g opacity="0.2">
<path d="M314.162 95.9351L305.988 105.432V116.275L323.17 95.9351H314.162Z" fill="white"/>
</g>
<g opacity="0.3">
<path d="M280.854 160.426L280.82 163.981L299.945 141.614V138.484L280.854 160.426Z" fill="white"/>
</g>
<g opacity="0.2">
<path d="M325.072 95.9351H280.859V97.6277H325.072V95.9351Z" fill="black"/>
</g>
<path d="M340.346 89.3293H333.416V126.068L344.679 125L340.346 89.3293Z" fill="#263238"/>
<path d="M340.608 91.4763H335.502V123.92L344.454 123.142L340.608 91.4763Z" fill="#455A64"/>
<path d="M351.206 94.1062H349.883C349.613 94.1062 349.395 94.3249 349.395 94.5947V122.728C349.395 122.998 349.613 123.216 349.883 123.216H351.206C351.476 123.216 351.695 122.998 351.695 122.728V94.5947C351.695 94.3249 351.476 94.1062 351.206 94.1062Z" fill="#263238"/>
<path d="M354.263 108.125H351.689V114.492H354.263V108.125Z" fill="#263238"/>
<path d="M87.4776 88.8862H54.5449V124.568H87.4776V88.8862Z" fill="#455A64"/>
<path d="M124.29 88.8862H91.3574V124.568H124.29V88.8862Z" fill="#455A64"/>
<path d="M161.097 88.8862H128.164V124.568H161.097V88.8862Z" fill="#455A64"/>
<path d="M197.903 88.8862H164.971V124.568H197.903V88.8862Z" fill="#455A64"/>
<path d="M234.71 88.8862H201.777V124.568H234.71V88.8862Z" fill="#455A64"/>
<path d="M271.517 88.8862H238.584V124.568H271.517V88.8862Z" fill="#455A64"/>
<path d="M51.4333 78.5713H45.1342C44.7138 78.5713 44.373 78.9121 44.373 79.3324V81.4056C44.373 81.826 44.7138 82.1667 45.1342 82.1667H51.4333C51.8536 82.1667 52.1944 81.826 52.1944 81.4056V79.3324C52.1944 78.9121 51.8536 78.5713 51.4333 78.5713Z" fill="#FF9A6C"/>
<path d="M272.828 157.393H266.529C266.108 157.393 265.768 157.734 265.768 158.154V160.227C265.768 160.647 266.108 160.988 266.529 160.988H272.828C273.248 160.988 273.589 160.647 273.589 160.227V158.154C273.589 157.734 273.248 157.393 272.828 157.393Z" fill="#FF9A6C"/>
<path d="M333.025 78.8611H326.726C326.306 78.8611 325.965 79.2018 325.965 79.6222V81.6954C325.965 82.1158 326.306 82.4565 326.726 82.4565H333.025C333.445 82.4565 333.786 82.1158 333.786 81.6954V79.6222C333.786 79.2018 333.445 78.8611 333.025 78.8611Z" fill="#FF9A6C"/>
<path d="M48.4626 159.188H42.1635C41.7431 159.188 41.4023 159.528 41.4023 159.949V162.022C41.4023 162.442 41.7431 162.783 42.1635 162.783H48.4626C48.8829 162.783 49.2237 162.442 49.2237 162.022V159.949C49.2237 159.528 48.8829 159.188 48.4626 159.188Z" fill="#FF9A6C"/>
<path d="M32.0632 142.568H279.109V148.589H32.0632C31.7242 148.589 31.3991 148.454 31.1595 148.214C30.9198 147.975 30.7852 147.65 30.7852 147.311V143.835C30.7882 143.498 30.9241 143.175 31.1635 142.938C31.4028 142.701 31.7262 142.568 32.0632 142.568Z" fill="#263238"/>
<path d="M29.7012 174.762H49.4165L51.1886 176.216H100.837L99.4345 185.554L42.964 185.441L40.0558 182.265H31.2802C30.8614 182.265 30.4598 182.099 30.1637 181.803C29.8675 181.507 29.7012 181.105 29.7012 180.686V174.762Z" fill="#263238"/>
<path d="M269.68 177.335H154.422V185.344H269.68V177.335Z" fill="#263238"/>
<path d="M45.9453 183.453V186.452H89.8063V182.368L45.9453 183.453Z" fill="#263238"/>
<path d="M64.5471 124.568C64.5471 124.568 63.5929 116.048 62.9851 113.634C62.3773 111.22 62.3773 110.078 63.7689 110.226C65.1605 110.374 67.6711 116.213 68.0176 124.545L64.5471 124.568Z" fill="#263238"/>
<path d="M77.3795 124.568C77.3795 124.568 76.4252 116.048 75.8175 113.634C75.2097 111.22 75.2154 110.078 76.6013 110.226C77.9872 110.374 80.5035 116.213 80.8499 124.545L77.3795 124.568Z" fill="#263238"/>
<g opacity="0.1">
<path d="M82.8203 124.568V97.6277H87.4722V124.568H82.8203Z" fill="white"/>
</g>
<g opacity="0.1">
<path d="M92.4199 124.568V97.6277H124.29V124.568H92.4199Z" fill="white"/>
</g>
<g opacity="0.1">
<path d="M136.32 124.568V97.6277H161.114V124.568H136.32Z" fill="white"/>
</g>
<g opacity="0.1">
<path d="M173.133 124.568V97.6277H197.926V124.568H173.133Z" fill="white"/>
</g>
<g opacity="0.1">
<path d="M201.777 124.568V97.6277H226.571V124.568H201.777Z" fill="white"/>
</g>
<g opacity="0.1">
<path d="M246.512 124.568V97.6277H271.277V124.568H246.512Z" fill="white"/>
</g>
<path d="M273.083 173.575C273.079 173.526 273.079 173.477 273.083 173.427C273.083 173.314 273.083 173.178 273.083 173.013C273.083 172.627 273.083 172.104 273.055 171.445C273.055 170.082 273.021 168.151 272.998 165.765L273.106 165.873L256.878 165.913L257.026 165.765V167.799C257.026 168.469 257.026 169.133 257.026 169.781C257.026 171.087 257.026 172.346 257.026 173.558L256.89 173.416L268.505 173.484L271.879 173.524H272.794H273.117C273.019 173.532 272.92 173.532 272.822 173.524H271.942L268.596 173.564L256.89 173.632H256.736V173.49C256.736 172.28 256.736 171.019 256.736 169.713V165.697L256.884 165.549L273.112 165.589H273.208V165.697C273.208 168.1 273.163 170.048 273.152 171.434C273.152 172.081 273.152 172.598 273.123 172.973C273.124 173.174 273.111 173.376 273.083 173.575Z" fill="#263238"/>
<path d="M387.854 173.433L389.455 181.817H392.369V185.577H405.143V182.981H406.433C406.712 182.981 406.989 182.926 407.247 182.819C407.505 182.712 407.74 182.555 407.937 182.357C408.134 182.159 408.291 181.924 408.397 181.666C408.503 181.407 408.558 181.131 408.557 180.851V177.318C408.557 176.755 408.333 176.214 407.935 175.816C407.537 175.418 406.996 175.194 406.433 175.194H405.212V173.075L387.854 173.433Z" fill="#263238"/>
<path d="M327.515 138.74L327.254 138.234L354.251 124.125V86.9835H329.151V86.4155H354.819V124.472L354.671 124.551L327.515 138.74Z" fill="#263238"/>
<path d="M279.212 153.031H33.1035C32.7961 153.031 32.5469 153.28 32.5469 153.587V155.098C32.5469 155.405 32.7961 155.655 33.1035 155.655H279.212C279.52 155.655 279.769 155.405 279.769 155.098V153.587C279.769 153.28 279.52 153.031 279.212 153.031Z" fill="#263238"/>
<path d="M127.383 210.965C141.185 210.815 152.252 199.505 152.103 185.704C151.954 171.902 140.644 160.834 126.842 160.983C113.04 161.133 101.973 172.443 102.122 186.244C102.271 200.046 113.581 211.114 127.383 210.965Z" fill="#263238"/>
<path d="M102.122 185.554C102.122 185.554 102.122 185.6 102.122 185.622C102.026 192.251 104.567 198.645 109.187 203.4C113.806 208.155 120.125 210.879 126.753 210.975C133.381 211.071 139.776 208.529 144.531 203.91C149.285 199.291 152.01 192.972 152.106 186.344V186.304L102.122 185.554Z" fill="#263238"/>
<path d="M109.562 185.736C109.513 189.205 110.494 192.611 112.381 195.523C114.267 198.436 116.975 200.723 120.161 202.096C123.347 203.47 126.87 203.868 130.282 203.24C133.694 202.611 136.844 200.986 139.333 198.568C141.821 196.15 143.537 193.048 144.263 189.655C144.989 186.262 144.693 182.73 143.412 179.506C142.131 176.281 139.922 173.509 137.066 171.539C134.209 169.57 130.833 168.491 127.363 168.44C125.059 168.406 122.77 168.826 120.627 169.676C118.485 170.527 116.531 171.792 114.878 173.398C113.225 175.005 111.904 176.921 110.992 179.038C110.08 181.155 109.594 183.431 109.562 185.736Z" fill="#FAFAFA"/>
<path d="M127.364 168.435C122.709 168.369 118.219 170.155 114.881 173.4C111.543 176.644 109.63 181.081 109.562 185.736L144.654 186.241C144.688 183.937 144.268 181.648 143.418 179.506C142.568 177.363 141.304 175.409 139.698 173.756C138.092 172.102 136.177 170.781 134.06 169.868C131.944 168.955 129.668 168.468 127.364 168.435Z" fill="#E0E0E0"/>
<path d="M116.441 185.827C116.41 187.941 117.008 190.016 118.157 191.79C119.307 193.565 120.956 194.959 122.898 195.796C124.839 196.632 126.985 196.875 129.064 196.492C131.144 196.109 133.063 195.119 134.579 193.645C136.095 192.172 137.14 190.282 137.583 188.215C138.025 186.148 137.844 183.995 137.063 182.031C136.282 180.066 134.936 178.377 133.196 177.177C131.455 175.978 129.398 175.321 127.284 175.29C124.449 175.251 121.714 176.339 119.681 178.314C117.648 180.29 116.482 182.992 116.441 185.827Z" fill="#263238"/>
<path d="M362.227 210.957C376.029 210.807 387.096 199.498 386.947 185.696C386.797 171.894 375.488 160.826 361.686 160.976C347.884 161.125 336.816 172.435 336.966 186.237C337.115 200.039 348.425 211.106 362.227 210.957Z" fill="#263238"/>
<path d="M336.956 185.554V185.622C336.908 188.904 337.508 192.164 338.72 195.214C339.932 198.264 341.733 201.046 344.021 203.4C346.308 205.754 349.036 207.635 352.05 208.935C355.065 210.234 358.305 210.928 361.587 210.975C364.869 211.022 368.128 210.423 371.179 209.211C374.229 207.998 377.01 206.197 379.365 203.91C381.719 201.623 383.6 198.894 384.899 195.88C386.199 192.866 386.892 189.626 386.94 186.344V186.304L336.956 185.554Z" fill="#263238"/>
<path d="M344.402 185.736C344.353 189.206 345.334 192.612 347.221 195.524C349.107 198.436 351.815 200.724 355.002 202.097C358.189 203.47 361.711 203.868 365.124 203.239C368.536 202.611 371.686 200.985 374.174 198.566C376.663 196.148 378.378 193.046 379.104 189.652C379.829 186.259 379.532 182.727 378.25 179.502C376.968 176.278 374.759 173.506 371.902 171.537C369.044 169.568 365.667 168.49 362.198 168.44C359.893 168.407 357.605 168.827 355.463 169.678C353.321 170.529 351.368 171.794 349.716 173.4C348.063 175.007 346.743 176.923 345.831 179.039C344.92 181.156 344.434 183.432 344.402 185.736Z" fill="#FAFAFA"/>
<path d="M362.198 168.435C359.893 168.402 357.605 168.823 355.463 169.675C353.321 170.526 351.368 171.792 349.716 173.398C348.063 175.005 346.743 176.922 345.831 179.039C344.92 181.155 344.434 183.431 344.402 185.736L379.493 186.241C379.56 181.587 377.776 177.096 374.532 173.757C371.289 170.418 366.852 168.503 362.198 168.435Z" fill="#E0E0E0"/>
<path d="M351.257 185.827C351.227 187.941 351.824 190.016 352.974 191.791C354.123 193.565 355.773 194.959 357.714 195.796C359.656 196.633 361.802 196.875 363.881 196.492C365.96 196.11 367.879 195.119 369.395 193.646C370.911 192.172 371.957 190.282 372.399 188.215C372.841 186.148 372.66 183.996 371.88 182.031C371.099 180.066 369.753 178.377 368.012 177.177C366.271 175.978 364.214 175.321 362.1 175.29C360.696 175.27 359.302 175.527 357.997 176.045C356.693 176.564 355.503 177.334 354.496 178.313C353.489 179.291 352.685 180.458 352.129 181.748C351.573 183.037 351.277 184.423 351.257 185.827Z" fill="#263238"/>
<path d="M339.045 76.555C339.181 76.3675 349.03 76.555 349.03 76.555C349.03 76.555 347.775 79.6506 344.68 80.6559C342.978 81.2559 341.164 81.4712 339.369 81.2864L339.045 76.555Z" fill="#263238"/>
<path d="M39.9198 75.8904H30.7863C30.7863 75.8904 30.099 79.4177 36.2959 81.0024L39.9198 75.8904Z" fill="#263238"/>
<path d="M396.998 159.676H398.469C398.757 159.676 399.033 159.79 399.236 159.994C399.44 160.197 399.554 160.473 399.554 160.761V170.565C399.554 170.852 399.44 171.128 399.236 171.332C399.033 171.535 398.757 171.649 398.469 171.649H396.998V159.676Z" fill="white"/>
<path d="M100.577 124.568C100.577 124.568 99.6225 116.048 99.0147 113.634C98.407 111.22 98.407 110.078 99.7929 110.226C101.179 110.374 103.701 116.213 104.047 124.545L100.577 124.568Z" fill="#263238"/>
<path d="M113.406 124.568C113.406 124.568 112.452 116.048 111.844 113.634C111.237 111.22 111.237 110.078 112.628 110.226C114.02 110.374 116.53 116.213 116.877 124.545L113.406 124.568Z" fill="#263238"/>
<path d="M137.826 124.568C137.826 124.568 136.872 116.048 136.264 113.634C135.657 111.22 135.657 110.078 137.048 110.226C138.44 110.374 140.95 116.213 141.297 124.545L137.826 124.568Z" fill="#263238"/>
<path d="M150.663 124.568C150.663 124.568 149.708 116.048 149.101 113.634C148.493 111.22 148.493 110.078 149.879 110.226C151.265 110.374 153.787 116.213 154.133 124.545L150.663 124.568Z" fill="#263238"/>
<path d="M175.512 124.568C175.512 124.568 174.558 116.048 173.95 113.634C173.343 111.22 173.348 110.078 174.734 110.226C176.12 110.374 178.636 116.213 178.983 124.545L175.512 124.568Z" fill="#263238"/>
<path d="M188.35 124.568C188.35 124.568 187.396 116.048 186.788 113.634C186.18 111.22 186.18 110.078 187.566 110.226C188.952 110.374 191.474 116.213 191.821 124.545L188.35 124.568Z" fill="#263238"/>
<path d="M211.717 124.568C211.717 124.568 210.763 116.048 210.155 113.634C209.548 111.22 209.548 110.078 210.934 110.226C212.319 110.374 214.836 116.213 215.188 124.545L211.717 124.568Z" fill="#263238"/>
<path d="M224.547 124.568C224.547 124.568 223.593 116.048 222.985 113.634C222.378 111.22 222.378 110.078 223.764 110.226C225.15 110.374 227.671 116.213 228.018 124.545L224.547 124.568Z" fill="#263238"/>
<path d="M247.915 124.568C247.915 124.568 246.96 116.048 246.353 113.634C245.745 111.22 245.745 110.078 247.131 110.226C248.517 110.374 251.039 116.213 251.385 124.545L247.915 124.568Z" fill="#263238"/>
<path d="M260.746 124.568C260.746 124.568 259.792 116.048 259.184 113.634C258.577 111.22 258.577 110.078 259.968 110.226C261.36 110.374 263.87 116.213 264.217 124.545L260.746 124.568Z" fill="#263238"/>
<g opacity="0.1">
<path d="M74.459 88.8862L54.5449 112.152V120.444L80.849 88.8862H74.459Z" fill="white"/>
</g>
<g opacity="0.1">
<path d="M87.4832 88.8862L58.1914 124.568H62.5991L87.5002 93.2258L87.4832 88.8862Z" fill="white"/>
</g>
<path d="M396.465 175.893C396.459 175.817 396.459 175.741 396.465 175.665C396.465 175.501 396.511 175.273 396.539 174.995C396.602 174.427 396.681 173.53 396.755 172.405C396.897 170.133 396.948 166.89 396.954 162.851C397.038 160.658 396.807 158.464 396.267 156.336C395.955 155.161 395.481 154.035 394.858 152.991C394.194 151.883 393.318 150.918 392.279 150.151C390.144 148.577 387.332 147.919 384.469 147.663C381.487 147.439 378.495 147.378 375.506 147.481C369.724 147.654 363.968 148.325 358.302 149.486C353.087 150.565 348.543 152.326 345.238 154.598C343.738 155.612 342.361 156.798 341.137 158.131C340.215 159.143 339.401 160.247 338.706 161.426C338.271 162.17 337.891 162.944 337.57 163.743C337.467 164.01 337.388 164.22 337.325 164.374C337.306 164.448 337.275 164.519 337.234 164.584C337.249 164.508 337.27 164.434 337.297 164.362C337.354 164.203 337.422 163.993 337.513 163.72C337.824 162.908 338.194 162.121 338.62 161.363C339.304 160.169 340.112 159.05 341.029 158.023C342.252 156.668 343.63 155.461 345.135 154.428C348.458 152.088 353.036 150.293 358.267 149.197C363.947 148.017 369.719 147.336 375.518 147.163C378.52 147.062 381.525 147.124 384.52 147.351C387.406 147.612 390.269 148.282 392.472 149.907C393.534 150.69 394.43 151.677 395.108 152.809C395.738 153.874 396.217 155.021 396.534 156.217C397.071 158.366 397.291 160.582 397.187 162.795C397.187 166.833 397.079 170.099 396.897 172.354C396.812 173.49 396.71 174.353 396.63 174.944C396.585 175.228 396.551 175.45 396.528 175.614C396.505 175.779 396.465 175.893 396.465 175.893Z" fill="#263238"/>
<g opacity="0.3">
<path d="M381.839 146.97C368.167 143.164 352.967 145.879 341.056 153.598C338.975 154.874 337.089 156.442 335.456 158.256C333.821 160.087 332.767 162.362 332.428 164.794C332.298 165.998 332.57 167.486 333.701 167.918C334.142 168.042 334.61 168.026 335.042 167.873C335.473 167.719 335.846 167.435 336.109 167.06C336.623 166.299 336.969 165.437 337.126 164.532C337.126 164.532 339.892 157.018 346.725 153.451C361.209 145.896 381.839 146.97 381.839 146.97Z" fill="black"/>
</g>
<path d="M99.6683 185.446C99.6683 185.531 86.9735 185.594 71.3194 185.594C55.6653 185.594 42.9648 185.531 42.9648 185.446C42.9648 185.361 55.654 185.299 71.3194 185.299C86.9848 185.299 99.6683 185.367 99.6683 185.446Z" fill="#455A64"/>
<path d="M175.752 184.481L180.438 188.775H243.554V184.481H175.752Z" fill="#263238"/>
<path d="M253.465 185.554C253.465 185.639 231.881 185.702 205.287 185.702C178.693 185.702 157.098 185.639 157.098 185.554C157.098 185.469 178.682 185.406 205.287 185.406C231.892 185.406 253.465 185.475 253.465 185.554Z" fill="#455A64"/>
<g opacity="0.2">
<path d="M341.517 98.9512L335.502 105.631V114.492L342.386 106.108L341.517 98.9512Z" fill="white"/>
</g>
</svg>
